<?xml version="1.0" encoding="UTF-8"?>
<svg width="42px" height="42px" viewBox="0 0 42 42" version="1.1" xmlns="http://www.w3.org/2000/svg" xmlns:xlink="http://www.w3.org/1999/xlink">
    <!-- Generator: Sketch 47.1 (45422) - http://www.bohemiancoding.com/sketch -->
    <title>icon</title>
    <desc>Created with Sketch.</desc>
    <defs>
        <circle id="path-1" cx="20" cy="20" r="20"></circle>
    </defs>
    <g id="Page-1" stroke="none" stroke-width="1" fill="none" fill-rule="evenodd">
        <g id="Onboarding" transform="translate(-19.000000, -359.000000)">
            <g id="Course-group" transform="translate(20.000000, 337.000000)">
                <g id="icon" transform="translate(0.000000, 23.000000)">
                    <g id="Oval">
                        <use fill="#9DCB6A" fill-rule="evenodd" xlink:href="#path-1"></use>
                        <circle stroke="#F1F1F1" stroke-width="1" cx="20" cy="20" r="20.5"></circle>
                    </g>
                    <g id="noun_401_cc" transform="translate(10.000000, 11.000000)">
                        <path d="M16,15.1515152 L14.4,15.1515152 L14.4,13.9393939 L5.6,13.9393939 L5.6,15.1515152 L4,15.1515152 L4,13.9393939 L0,13.9393939 C0,15.6129293 1.3432,16.969697 3,16.969697 L17,16.969697 C18.6568,16.969697 20,15.6129293 20,13.9393939 L16,13.9393939 L16,15.1515152 Z" id="Path" fill="#757575"></path>
                        <path d="M14.2,3.48717949 L14.2,1.84615385 C14.2,0.828307692 13.3926,0 12.4,0 L7.6,0 C6.6074,0 5.8,0.828307692 5.8,1.84615385 L5.8,3.48717949 L0,3.48717949 L0,13.3333333 L4,13.3333333 L4,10.6666667 L5.6,10.6666667 L5.6,13.3333333 L14.4,13.3333333 L14.4,10.6666667 L16,10.6666667 L16,13.3333333 L20,13.3333333 L20,3.48717949 L14.2,3.48717949 Z M7.4,1.84615385 C7.4,1.73312821 7.4896,1.64102564 7.6,1.64102564 L12.4,1.64102564 C12.5104,1.64102564 12.6,1.73312821 12.6,1.84615385 L12.6,3.48717949 L7.4,3.48717949 L7.4,1.84615385 Z" id="Shape" fill="#424242" fill-rule="nonzero"></path>
                    </g>
                </g>
            </g>
        </g>
    </g>
</svg>