<?xml version="1.0" encoding="UTF-8"?>
<svg width="276px" height="276px" viewBox="0 0 276 276" version="1.1" xmlns="http://www.w3.org/2000/svg" xmlns:xlink="http://www.w3.org/1999/xlink">
    <!-- Generator: Sketch 47.1 (45422) - http://www.bohemiancoding.com/sketch -->
    <title>noun_1134283_cc</title>
    <desc>Created with Sketch.</desc>
    <defs></defs>
    <g id="Page-1" stroke="none" stroke-width="1" fill="none" fill-rule="evenodd">
        <g id="Pellet" transform="translate(-625.000000, -594.000000)" fill-rule="nonzero" fill="#E7233D">
            <g id="noun_1134283_cc" transform="translate(613.000000, 582.000000)">
                <g id="Group">
                    <path d="M272.853659,12 L27.1463415,12 C18.7956585,12 12,18.7956585 12,27.1463415 L12,272.853659 C12,281.204341 18.7956585,288 27.1463415,288 L272.853659,288 C281.204341,288 288,281.204341 288,272.853659 L288,27.1463415 C288,18.7956585 281.204341,12 272.853659,12 Z M114,48 C123.941215,48 132,56.0587853 132,66 C132,75.9412147 123.941215,84 114,84 C104.058785,84 96,75.9412147 96,66 C96,56.0587853 104.058785,48 114,48 Z M132,115.044417 L132,141.907949 L96,180 L96,115.047634 C96,104.526727 104.055391,96 113.99848,96 C123.941569,96 132,104.526727 132,115.044417 Z M203.984679,210.446202 C203.984679,210.53899 204.003879,210.638177 203.984679,210.727766 L200.567145,240.173537 C200.183152,243.491506 197.18481,245.871996 193.860074,245.484846 C192.452101,245.318468 191.216924,244.68815 190.285742,243.757071 C189.018567,242.493235 188.32738,240.68867 188.548176,238.775319 L189.965748,226.591303 L166.324602,250.229829 C163.966247,252.591122 160.126321,252.591122 157.771166,250.22343 C155.409611,247.862137 155.409611,244.032235 157.771166,241.667743 L181.405913,218.035616 L169.226946,219.449832 C167.313383,219.667403 165.508618,218.979493 164.244642,217.712458 C163.31346,216.781379 162.676672,215.54314 162.519875,214.141722 C162.132682,210.823753 164.507037,207.819344 167.825373,207.432194 L197.274408,204.015039 C197.367206,204.00224 197.463205,204.021438 197.556003,204.015039 C197.831198,203.999041 198.099992,203.992642 198.375187,204.011839 C198.531984,204.024637 198.691981,204.034236 198.845578,204.059833 C199.120773,204.104627 199.386368,204.165419 199.651963,204.248608 C199.79276,204.287003 199.939957,204.318999 200.077554,204.373392 C200.362349,204.478978 200.637544,204.61656 200.912738,204.77334 C201.015136,204.830933 201.123934,204.872527 201.226332,204.939718 C201.587925,205.166889 201.933519,205.435654 202.250313,205.752413 C202.567107,206.069172 202.835902,206.417926 203.063097,206.77308 C203.130296,206.872267 203.168695,206.984253 203.229494,207.089839 C203.383091,207.365003 203.527088,207.636968 203.632686,207.92493 C203.683885,208.062512 203.712685,208.206494 203.757484,208.350475 C203.831082,208.61924 203.901481,208.881606 203.93988,209.15677 C203.96548,209.31355 203.984679,209.473529 203.991079,209.633508 C204.003879,209.905473 204.003879,210.177437 203.984679,210.446202 Z M264,133.577252 C264,135.376387 262.478866,136.836554 260.597015,136.836554 L213.002866,136.836554 L106.288657,239.045024 C105.652299,239.657773 104.784537,240 103.882746,240 L39.4029851,240 C37.5245373,240 36,238.543092 36,236.740697 L36,190.422748 C36,188.620354 37.5245373,187.163446 39.4029851,187.163446 L87.0005373,187.163446 L91.9688955,182.401605 L132.270448,143.801684 L193.714746,84.9549757 C194.351104,84.3422268 195.21206,84 196.117254,84 L260.597015,84 C262.478866,84 264,85.4569083 264,87.2593026 L264,133.577252 Z" id="Shape"></path>
                </g>
            </g>
        </g>
    </g>
</svg>