<?xml version="1.0" encoding="UTF-8"?>
<svg width="23px" height="23px" viewBox="0 0 23 23" version="1.1" xmlns="http://www.w3.org/2000/svg" xmlns:xlink="http://www.w3.org/1999/xlink">
    <!-- Generator: Sketch 47.1 (45422) - http://www.bohemiancoding.com/sketch -->
    <title>noun_1134283_cc</title>
    <desc>Created with Sketch.</desc>
    <defs></defs>
    <g id="Page-1" stroke="none" stroke-width="1" fill="none" fill-rule="evenodd">
        <g id="Course-Details" transform="translate(-16.000000, -13.000000)" fill-rule="nonzero" fill="#FFFFFF">
            <g id="Header">
                <g id="noun_1134283_cc" transform="translate(15.000000, 12.000000)">
                    <g id="Group">
                        <path d="M22.7378049,1 L2.26219512,1 C1.56630488,1 1,1.56630488 1,2.26219512 L1,22.7378049 C1,23.4336951 1.56630488,24 2.26219512,24 L22.7378049,24 C23.4336951,24 24,23.4336951 24,22.7378049 L24,2.26219512 C24,1.56630488 23.4336951,1 22.7378049,1 Z M9.5,4 C10.3284346,4 11,4.67156544 11,5.5 C11,6.32843456 10.3284346,7 9.5,7 C8.67156544,7 8,6.32843456 8,5.5 C8,4.67156544 8.67156544,4 9.5,4 Z M11,9.58703477 L11,11.8256624 L8,15 L8,9.5873028 C8,8.71056058 8.67128261,8 9.49987334,8 C10.3284641,8 11,8.71056058 11,9.58703477 Z M16.9987233,17.5371835 C16.9987233,17.5449159 17.0003233,17.5531815 16.9987233,17.5606471 L16.7139288,20.0144614 C16.6819294,20.2909588 16.4320675,20.489333 16.1550061,20.4570705 C16.0376751,20.4432057 15.9347437,20.3906792 15.8571452,20.3130893 C15.7515472,20.2077696 15.6939483,20.0573892 15.712348,19.8979432 L15.830479,18.8826086 L13.8603835,20.8524858 C13.6638539,21.0492602 13.3438601,21.0492602 13.1475972,20.8519525 C12.9508009,20.6551781 12.9508009,20.3360196 13.1475972,20.1389786 L15.1171594,18.1696346 L14.1022455,18.287486 C13.9427819,18.3056169 13.7923848,18.2482911 13.6870535,18.1427048 C13.609455,18.0651149 13.5563893,17.9619283 13.5433229,17.8451435 C13.5110569,17.5686461 13.7089197,17.3182787 13.9854478,17.2860162 L16.439534,17.0012532 C16.4472672,17.0001867 16.455267,17.0017865 16.4630002,17.0012532 C16.4859331,16.9999201 16.5083327,16.9993868 16.5312656,17.0009866 C16.544332,17.0020531 16.5576651,17.002853 16.5704648,17.0049861 C16.5933977,17.0087189 16.6155306,17.0137849 16.6376635,17.0207174 C16.6493967,17.0239169 16.6616631,17.0265833 16.6731295,17.031116 C16.6968624,17.0399149 16.7197953,17.05138 16.7427282,17.064445 C16.7512614,17.0692444 16.7603279,17.0727106 16.768861,17.0783099 C16.7989938,17.0972407 16.8277932,17.1196378 16.8541927,17.1460344 C16.8805922,17.172431 16.9029918,17.2014939 16.9219248,17.23109 C16.9275247,17.2393556 16.9307246,17.2486877 16.9357912,17.2574866 C16.9485909,17.2804169 16.9605907,17.3030806 16.9693905,17.3270775 C16.9736571,17.3385427 16.9760571,17.3505411 16.9797903,17.3625396 C16.9859235,17.3849367 16.9917901,17.4068005 16.99499,17.4297308 C16.9971233,17.4427958 16.9987233,17.4561274 16.9992566,17.469459 C17.0003233,17.4921227 17.0003233,17.5147864 16.9987233,17.5371835 Z M22,11.1314376 C22,11.2813656 21.8732388,11.4030462 21.7164179,11.4030462 L17.7502388,11.4030462 L8.85738806,19.9204187 C8.80435821,19.9714811 8.73204478,20 8.65689552,20 L3.28358209,20 C3.12704478,20 3,19.878591 3,19.7283915 L3,15.8685624 C3,15.7183628 3.12704478,15.5969538 3.28358209,15.5969538 L7.25004478,15.5969538 L7.66407463,15.2001337 L11.0225373,11.9834737 L16.1428955,7.0795813 C16.1959254,7.0285189 16.2676716,7 16.3431045,7 L21.7164179,7 C21.8732388,7 22,7.12140902 22,7.27160855 L22,11.1314376 Z" id="Shape"></path>
                    </g>
                </g>
            </g>
        </g>
    </g>
</svg>