<?xml version="1.0" encoding="UTF-8"?>
<svg width="10px" height="16px" viewBox="0 0 10 16" version="1.1" xmlns="http://www.w3.org/2000/svg" xmlns:xlink="http://www.w3.org/1999/xlink">
    <!-- Generator: Sketch 47.1 (45422) - http://www.bohemiancoding.com/sketch -->
    <title>right</title>
    <desc>Created with Sketch.</desc>
    <defs></defs>
    <g id="Page-1" stroke="none" stroke-width="1" fill="none" fill-rule="evenodd">
        <g id="Onboarding" transform="translate(-335.000000, -394.000000)" fill-rule="nonzero" fill="#9B9B9B">
            <g id="Course-group" transform="translate(20.000000, 337.000000)">
                <g id="right" transform="translate(315.000000, 57.000000)">
                    <path d="M0.411384615,15.4815385 C0.837846154,15.908 1.52461538,15.9110769 1.95692308,15.4950769 L1.95753846,15.4956923 L1.96215385,15.4907692 C1.96584615,15.4870769 1.97015385,15.4849231 1.97384615,15.4815385 C1.97753846,15.4781538 1.98,15.4735385 1.98307692,15.4698462 L9.40215385,8.05076923 L9.37353846,8.02153846 L9.40246154,7.99323077 L1.95753846,0.548307692 L1.95753846,0.548307692 C1.52553846,0.116615385 0.826461538,0.117230769 0.395076923,0.548307692 C-0.036,0.979692308 -0.0366153846,1.67907692 0.395076923,2.11076923 L0.392615385,2.11292308 L6.30153846,8.02184615 L0.392615385,13.9307692 L0.397846154,13.936 C-0.0181538462,14.3683077 -0.0147692308,15.0550769 0.411384615,15.4815385 Z" id="Shape"></path>
                </g>
            </g>
        </g>
    </g>
</svg>